<svg xmlns="http://www.w3.org/2000/svg" width="82.978" height="82.974" viewBox="0 0 82.978 82.974">
  <g id="Boton-Messenger" transform="translate(-1779 -966.85)">
    <circle id="Fondo" cx="33" cy="33" r="33" transform="translate(1790 975)" fill="#fff"/>
    <path id="Messenger" d="M42.143.563C18.717.563.563,17.683.563,40.808A39.333,39.333,0,0,0,13.623,70.577c1.4,1.256,1.109,1.984,1.347,9.742a3.332,3.332,0,0,0,4.664,2.939c8.852-3.9,8.965-4.206,10.466-3.8,25.644,7.058,53.44-9.353,53.44-38.652C83.54,17.683,65.571.563,42.143.563ZM67.11,31.534,54.9,50.868a6.252,6.252,0,0,1-9.019,1.661l-9.716-7.272a2.509,2.509,0,0,0-3.011,0L20.041,55.2a1.972,1.972,0,0,1-2.862-2.621L29.391,33.245a6.25,6.25,0,0,1,9.019-1.661l9.713,7.271a2.509,2.509,0,0,0,3.011,0L64.251,28.92a1.967,1.967,0,0,1,2.859,2.613Z" transform="translate(1778.438 966.288)" fill="#2748f2"/>
  </g>
</svg>
