<svg xmlns="http://www.w3.org/2000/svg" width="123" height="123" viewBox="0 0 123 123">
  <g id="Confianza" transform="translate(-895 -5029)">
    <g id="Grupo_96" data-name="Grupo 96" transform="translate(659.129 3282.722)">
      <g id="Elipse_17" data-name="Elipse 17" transform="translate(235.871 1746.278)" fill="none" stroke="#70b3ff" stroke-width="2">
        <circle cx="61.5" cy="61.5" r="61.5" stroke="none"/>
        <circle cx="61.5" cy="61.5" r="60.5" fill="none"/>
      </g>
    </g>
    <g id="Grupo_107" data-name="Grupo 107" transform="translate(928 5062)">
      <path id="Trazado_115" data-name="Trazado 115" d="M242.66,6.641a1.66,1.66,0,0,0,1.66-1.66V1.66a1.66,1.66,0,1,0-3.32,0v3.32A1.66,1.66,0,0,0,242.66,6.641Zm0,0" transform="translate(-214.326)" fill="#70b3ff"/>
      <path id="Trazado_116" data-name="Trazado 116" d="M303.834,36.154l3.32-3.32a1.66,1.66,0,1,0-2.348-2.348l-3.32,3.32a1.66,1.66,0,1,0,2.348,2.348Zm0,0" transform="translate(-267.685 -26.68)" fill="#70b3ff"/>
      <path id="Trazado_117" data-name="Trazado 117" d="M154.807,36.154a1.66,1.66,0,0,0,2.348-2.348l-3.32-3.32a1.66,1.66,0,0,0-2.348,2.348Zm0,0" transform="translate(-134.288 -26.68)" fill="#70b3ff"/>
      <path id="Trazado_118" data-name="Trazado 118" d="M28.282,158.641a6.641,6.641,0,1,0-6.641,6.641A6.647,6.647,0,0,0,28.282,158.641Zm0,0" transform="translate(-13.34 -135.177)" fill="#70b3ff"/>
      <path id="Trazado_119" data-name="Trazado 119" d="M28.334,121a4.986,4.986,0,0,0-4.981,4.981,11.826,11.826,0,0,1-11.732,11.732H8.3a8.311,8.311,0,0,0-8.3,8.3v16.6a1.66,1.66,0,0,0,1.66,1.66H14.942a1.641,1.641,0,0,0,1.638-1.658l.01-15.525a21.755,21.755,0,0,0,16.725-21.111A4.986,4.986,0,0,0,28.334,121Zm0,0" transform="translate(0 -107.608)" fill="#70b3ff"/>
      <path id="Trazado_120" data-name="Trazado 120" d="M390.282,158.641a6.641,6.641,0,1,0-6.641,6.641A6.648,6.648,0,0,0,390.282,158.641Zm0,0" transform="translate(-335.274 -135.177)" fill="#70b3ff"/>
      <path id="Trazado_121" data-name="Trazado 121" d="M295.129,233.13h-3.32a11.889,11.889,0,0,1-9.413-4.837,24.542,24.542,0,0,1-4.923,9.2,22.268,22.268,0,0,0,9.368,5.013l.01,15.527a1.641,1.641,0,0,0,1.638,1.658H301.77a1.66,1.66,0,0,0,1.66-1.66v-16.6A8.311,8.311,0,0,0,295.129,233.13Zm0,0" transform="translate(-246.762 -203.026)" fill="#70b3ff"/>
    </g>
  </g>
</svg>
