<svg xmlns="http://www.w3.org/2000/svg" xmlns:xlink="http://www.w3.org/1999/xlink" width="422.332" height="476.425" viewBox="0 0 422.332 476.425">
  <defs>
    <filter id="Diente" x="0" y="0" width="422.332" height="476.425" filterUnits="userSpaceOnUse">
      <feOffset dx="7" dy="7" input="SourceAlpha"/>
      <feGaussianBlur stdDeviation="12.5" result="blur"/>
      <feFlood flood-opacity="0.161"/>
      <feComposite operator="in" in2="blur"/>
      <feComposite in="SourceGraphic"/>
    </filter>
  </defs>
  <g transform="matrix(1, 0, 0, 1, 0, 0)" filter="url(#Diente)">
    <path id="Diente-2" data-name="Diente" d="M132.53,184.791c25.337,0,37.08,19.262,39.545,46.63.579,6.545-.007,16.09-.857,27.146-2.843,36.719-6.115,81.838,18.265,81.838,20.644,0,31.223-39.669,37.352-84.9,5.9-44.768-.364-67.044,2.729-86.929,5.865-37.665,38.659-71.434,28.53-119.459-5.615-26.644-20.258-39.168-34.745-44.446-33.387-12.18-54.96,11.292-90.818,11.292S75.121-7.505,41.719,4.675C27.24,9.945,12.589,22.476,6.96,49.12-3.147,97.146,29.64,130.908,35.526,168.58c3.064,19.878-3.164,42.161,2.729,86.929,6.115,45.226,16.715,84.9,37.337,84.9,24.365,0,21.115-45.119,18.272-81.838-.829-11.063-1.457-20.608-.864-27.153C95.457,204.053,107.372,184.791,132.53,184.791Z" transform="translate(130.9 27.83) rotate(18)" fill="#fff"/>
  </g>
</svg>
