<svg xmlns="http://www.w3.org/2000/svg" width="123" height="123" viewBox="0 0 123 123">
  <g id="Disponibilidad" transform="translate(-1316 -5029)">
    <g id="Grupo_96" data-name="Grupo 96" transform="translate(1080.129 3282.722)">
      <g id="Elipse_17" data-name="Elipse 17" transform="translate(235.871 1746.278)" fill="none" stroke="#ff7070" stroke-width="2">
        <circle cx="61.5" cy="61.5" r="61.5" stroke="none"/>
        <circle cx="61.5" cy="61.5" r="60.5" fill="none"/>
      </g>
    </g>
    <path id="Icon_awesome-calendar-alt" data-name="Icon awesome-calendar-alt" d="M0,48.881a5.058,5.058,0,0,0,5.057,5.057H42.139A5.058,5.058,0,0,0,47.2,48.881V20.227H0ZM33.711,28.233a1.268,1.268,0,0,1,1.264-1.264h4.214a1.268,1.268,0,0,1,1.264,1.264v4.214a1.268,1.268,0,0,1-1.264,1.264H34.975a1.268,1.268,0,0,1-1.264-1.264Zm0,13.484a1.268,1.268,0,0,1,1.264-1.264h4.214a1.268,1.268,0,0,1,1.264,1.264v4.214A1.268,1.268,0,0,1,39.189,47.2H34.975a1.268,1.268,0,0,1-1.264-1.264ZM20.227,28.233a1.268,1.268,0,0,1,1.264-1.264H25.7a1.268,1.268,0,0,1,1.264,1.264v4.214A1.268,1.268,0,0,1,25.7,33.711H21.491a1.268,1.268,0,0,1-1.264-1.264Zm0,13.484a1.268,1.268,0,0,1,1.264-1.264H25.7a1.268,1.268,0,0,1,1.264,1.264v4.214A1.268,1.268,0,0,1,25.7,47.2H21.491a1.268,1.268,0,0,1-1.264-1.264ZM6.742,28.233a1.268,1.268,0,0,1,1.264-1.264H12.22a1.268,1.268,0,0,1,1.264,1.264v4.214a1.268,1.268,0,0,1-1.264,1.264H8.006a1.268,1.268,0,0,1-1.264-1.264Zm0,13.484a1.268,1.268,0,0,1,1.264-1.264H12.22a1.268,1.268,0,0,1,1.264,1.264v4.214A1.268,1.268,0,0,1,12.22,47.2H8.006a1.268,1.268,0,0,1-1.264-1.264Zm35.4-34.975H37.082V1.686A1.691,1.691,0,0,0,35.4,0H32.025A1.691,1.691,0,0,0,30.34,1.686V6.742H16.855V1.686A1.691,1.691,0,0,0,15.17,0H11.8a1.691,1.691,0,0,0-1.686,1.686V6.742H5.057A5.058,5.058,0,0,0,0,11.8v5.057H47.2V11.8A5.058,5.058,0,0,0,42.139,6.742Z" transform="translate(1354.152 5064.031)" fill="#ff7070"/>
  </g>
</svg>
