<svg xmlns="http://www.w3.org/2000/svg" width="25.127" height="24.561" viewBox="0 0 25.127 24.561">
  <path id="Icono-Whatsapp" d="M21.364,5.819A12.5,12.5,0,0,0,12.558,2.25,12.328,12.328,0,0,0,.107,14.421a11.973,11.973,0,0,0,1.66,6.085L0,26.811l6.6-1.694a12.641,12.641,0,0,0,5.951,1.48h.006A12.435,12.435,0,0,0,25.127,14.426a12.087,12.087,0,0,0-3.764-8.607ZM12.558,24.546a10.513,10.513,0,0,1-5.272-1.409l-.376-.219L3,23.921l1.043-3.733L3.792,19.8A9.915,9.915,0,0,1,2.21,14.421,10.249,10.249,0,0,1,12.564,4.306a10.378,10.378,0,0,1,7.314,2.966,10.047,10.047,0,0,1,3.147,7.154A10.352,10.352,0,0,1,12.558,24.546Zm5.676-7.577c-.308-.154-1.84-.888-2.126-.987s-.494-.154-.7.154-.8.987-.987,1.2-.365.23-.673.077A8.415,8.415,0,0,1,9.513,13.79c-.32-.537.32-.5.914-1.661A.553.553,0,0,0,10.4,11.6c-.079-.154-.7-1.65-.959-2.259-.252-.592-.51-.51-.7-.521s-.387-.011-.595-.011a1.165,1.165,0,0,0-.83.378,3.386,3.386,0,0,0-1.088,2.538A5.889,5.889,0,0,0,7.493,14.87a13.783,13.783,0,0,0,5.317,4.594c1.974.833,2.748.9,3.735.762a3.186,3.186,0,0,0,2.1-1.447,2.49,2.49,0,0,0,.179-1.447C18.75,17.195,18.543,17.118,18.234,16.97Z" transform="translate(0 -2.25)" fill="#fff"/>
</svg>
