<svg xmlns="http://www.w3.org/2000/svg" width="336.709" height="145.359" viewBox="0 0 336.709 145.359">
  <g id="Logo" transform="translate(1.5 1.5)">
    <path id="Intersección_2" data-name="Intersección 2" d="M45.28,136.752a74.191,74.191,0,0,1-23.587-15.278A70.848,70.848,0,0,1,5.814,98.85a68.751,68.751,0,0,1,0-55.34A70.838,70.838,0,0,1,21.693,20.885,74.176,74.176,0,0,1,45.28,5.607a76.908,76.908,0,0,1,70.736,6.815,73.839,73.839,0,0,1,15.866,14.095,72.232,72.232,0,0,1,11.156,18.076c.069.161.137.323.205.484h-2.868a49.187,49.187,0,0,0-8.554-14.694c-6.032-7.073-5.567-9.157-14.121-15.134s-9.731-5.209-20.093-8.773S74.8,2.528,74.8,2.528A76.14,76.14,0,0,0,50.013,6.476C38.005,10.808,26.764,19.855,26.764,19.855S15.3,29.889,9.438,42.007,2.364,56.256,1.761,69.58,2.639,83.24,7.025,95.3s13.818,21.275,13.818,21.275,10.2,11.46,23.906,17.107,17.5,8.158,34.826,6.733,19.073-3.5,34.481-12.435,20.566-17.951,20.566-17.951h1.755a72.052,72.052,0,0,1-9.684,11.443,74.2,74.2,0,0,1-23.587,15.278,77.35,77.35,0,0,1-57.826,0Z" fill="rgba(255,255,255,0)" stroke="#d3cfcc" stroke-width="3"/>
    <path id="Trazado_3" data-name="Trazado 3" d="M18.705,0H208.263c12.285,0,22.244,10.728,22.244,23.963s-9.959,23.963-22.244,23.963H4.3V32.949L8.62,19.422Z" transform="translate(104.702 50.085)" fill="#0eae23"/>
    <g id="Grupo_1" data-name="Grupo 1" transform="translate(26.831 22.27)">
      <path id="Trazado_4" data-name="Trazado 4" d="M-1600.187,122.776c-11.046,4.2-20.342-3.8-20.342-3.8a45.9,45.9,0,0,1-6.2-4.4h0c-5.3-6.747-11.458-10.78-13.644-11-3.549-.35-8.746-1.05-13.4,2.049s-8.047,6.1-9.446,12.895-1.549,10.246,1.5,19.042,12.838,30.733,14.937,38.03,1.756,14.4,2.106,17.848c.2,1.973.2,4.926.4,7.5.137,1.717.521,3.179.5,4.248a6.4,6.4,0,0,0,4.2,5.848,11.064,11.064,0,0,0,4.2.55c.849,0,4.83-1.588,6.547-5.5s2.849-6.847,2.8-7.347.5-7.247.5-7.4.5-6.3.5-6.3a38.712,38.712,0,0,1,2.261-6.978c1.07-2.051,1.372-3.031,3.582-4.029-.216.1.356-.156.6-.274,2.249-1.1,2.5-.915,2.5-.915s-.25-1.05-1.949-.4-10.5,5.648-11.045,12.595-.15,15.294-3.149,18.842-3.549,3.549-5.2,1.649-2.449-8.3-2.5-13.844.3-8.547-.749-12.545-3.149-10.646-3.8-12.1-1.8-8.1-3.4-12.145-2.6-7.347-4.3-11.7c-.486-1.244-1.356-4.627-1.356-4.627a27.746,27.746,0,0,1-1.593-8.518c-.35-5.648-.45-7.2,0-9.846.237-1.4.4-1.749,2.062-3.173.638-.523.777-.569,1.786-1.275s2.249-1.549,2.249-1.549a16.3,16.3,0,0,1,5.048-1.1,29.228,29.228,0,0,1,6.148.55,33.406,33.406,0,0,1,3.249,3.149c.75,1,3.8,2.949,4.148,3.4a39.183,39.183,0,0,0,5.648,3.249c.9.35,2.449,1.249,3.5,1.549s3.448.95,3.948,1.15a8.006,8.006,0,0,0,3.249.8,21.435,21.435,0,0,0,3.6,0c2.5-.05,4,.15,5.348,0a8.075,8.075,0,0,0,3.049-.8c1.849-.7,3.7-1.6,3.7-1.6v-1.1l-1.4-.7Z" transform="translate(1664.169 -103.261)" fill="#d3cfcc"/>
      <path id="Trazado_5" data-name="Trazado 5" d="M-1561.859,126.053c10.46-.455,13.609-.78,15.493-1.559a21.266,21.266,0,0,1,4.353-1.559c2.859-.78,4.354-1.494,6.563-2.014a12.631,12.631,0,0,0,4.158-2.014,22.667,22.667,0,0,1,5.068-.585c2.794,0,11.63.13,14.229,7.732s-4.808,29.953-4.808,29.953-4.029,10.2-4.743,17.153-.974,11.89,0,15.2,2.145,6.757,2.34,9.291a4.486,4.486,0,0,1-1.819,4.418c-.974.715-3.9,2.274-5.2,2.274s-3.768.13-4.678-.65-1.624-.845-2.534-1.949-1.1-.78-2.079-2.859-1.689-2.924-2.144-4.678.65.78-.975-3.574a74.318,74.318,0,0,0-3.053-7.147,7.635,7.635,0,0,0-1.037-2.145,17.011,17.011,0,0,0-2.017-2.273,17.8,17.8,0,0,0-2.469-1.949c-1.462-.958-2.323-1.137-3.379-1.884a2.017,2.017,0,0,1-.914-1.809,2.009,2.009,0,0,1,.914-.92c.649-.309.812-.016,1.754.39a16.926,16.926,0,0,1,2.014,1.234c1.429.828,2.6.585,3.7,2.079s2.989,2.209,3.9,4.093,2.794,5.328,2.859,5.523,1.624,3.444,1.624,3.444l1.3,2.924s-.455,1.17,1.169,2.664,1.949,2.469,3.119,3.249,2.014,1.559,2.924,1.494a5.328,5.328,0,0,0,2.534-.715c.455-.39.845-.455.78-1.884a20.112,20.112,0,0,0-.78-4.808,14.1,14.1,0,0,1-1.3-3.444c-.2-1.364-.325-2.859-.52-4.223s-.65-4.158-.715-5.133a32.531,32.531,0,0,0,0-3.574,62.562,62.562,0,0,1,.455-7.342l1.17-4.938s1.429-7.537,1.819-8.447a113.694,113.694,0,0,0,3.183-13.515c.2-2.534,1.235-5.2,1.04-9.031s-.455-3.379-2.145-5.393-6.432-1.949-9.746-1.494-6.5,2.014-8.771,2.339-6.627.65-7.992.715a34.743,34.743,0,0,1-4.223-.39c-.26,0-3.834.13-4.613,0a3.935,3.935,0,0,0-1.365,0l-1.365-.325Z" transform="translate(1601.661 -112.325)" fill="#d3cfcc"/>
    </g>
    <text id="DENTAL_GM" data-name="DENTAL GM" transform="translate(157 71.965)" fill="#fff" font-size="24" font-family="Poppins-SemiBold, Poppins" font-weight="600"><tspan x="0" y="0">DENTAL GM</tspan></text>
    <text id="ODONTOLOGÍA_FAMILIAR" data-name="ODONTOLOGÍA FAMILIAR" transform="translate(146 90.984)" fill="#fff" font-size="13" font-family="Poppins-SemiBold, Poppins" font-weight="600"><tspan x="0" y="0">ODONTOLOGÍA FAMILIAR</tspan></text>
  </g>
</svg>
