<svg xmlns="http://www.w3.org/2000/svg" width="123" height="123" viewBox="0 0 123 123">
  <g id="Profesionales" transform="translate(-474 -4626)">
    <g id="Profesionales-2" data-name="Profesionales" transform="translate(238.129 2879.722)">
      <g id="Elipse_17" data-name="Elipse 17" transform="translate(235.871 1746.278)" fill="none" stroke="#ff7070" stroke-width="2">
        <circle cx="61.5" cy="61.5" r="61.5" stroke="none"/>
        <circle cx="61.5" cy="61.5" r="60.5" fill="none"/>
      </g>
    </g>
    <path id="Icon_open-people" data-name="Icon open-people" d="M35.393,0c-3.282,0-6.113,2.252-7.851,5.663A21.218,21.218,0,0,1,32.175,19.37a22.7,22.7,0,0,1-.579,5.212,7.567,7.567,0,0,0,3.8,1.223c5.341,0,9.653-5.792,9.653-12.87S40.734.064,35.393.064ZM16.088,6.435c-5.341,0-9.653,5.792-9.653,12.87s4.312,12.87,9.653,12.87,9.653-5.792,9.653-12.87S21.429,6.435,16.088,6.435ZM46.654,26.77a14.661,14.661,0,0,1-10.875,5.405A14.866,14.866,0,0,1,38.61,40.8v4.247h12.87V34.363a8.616,8.616,0,0,0-4.826-7.658ZM4.826,33.205A8.616,8.616,0,0,0,0,40.863V51.545H32.175V40.863a8.616,8.616,0,0,0-4.826-7.658A14.6,14.6,0,0,1,16.088,38.61,14.805,14.805,0,0,1,4.826,33.205Z" transform="translate(510 4662.001)" fill="#ff8181"/>
  </g>
</svg>
